#!OML:ASF H:\Dans Jumps\Project 1\Capture day 1\Session 1\subject.ASF
:FULLY-SPECIFIED
:DEGREES
510
root 0.384202 17.5775 9.64306 3.01737 1.96815 -1.06224
lowerback -0.349555 -0.139123 -0.952171
upperback 3.90535 -0.211064 1.42841
thorax 4.22715 -0.166409 1.99885
lowerneck -9.16447 -0.366357 -0.678534
upperneck 34.175 -0.821211 1.34311
head 12.916 -0.270198 0.534047
rclavicle -5.01931e-015 2.06736e-014
rhumerus -15.5609 -11.2073 -81.1906
rradius 31.3284
rwrist 32.9056
rhand -21.1589 -26.7377
rfingers 7.12502
rthumb 5.22095 -56.6534
lclavicle -5.01931e-015 2.06736e-014
lhumerus -18.7017 -0.0328927 84.1861
lradius 18.4912
lwrist 9.1285
lhand -25.9382 -8.7717
lfingers 7.12502
lthumb 0.605474 21.2072
rfemur -17.5445 -2.50594 19.9832
rtibia 25.5733
rfoot -10.5209 -1.21279
rtoes 9.66192
lfemur -17.8246 4.89807 -17.5458
ltibia 25.8822
lfoot -9.57611 0.837832
ltoes -4.45594
511
root 0.396416 17.5799 9.6675 3.0747 2.08193 -1.22352
lowerback -0.326454 -0.160793 -0.814815
upperback 3.90216 -0.246517 1.50945
thorax 4.21192 -0.180668 2.00407
lowerneck -9.20258 -0.404213 -0.699467
upperneck 34.1178 -0.864241 1.32315
head 12.9002 -0.294139 0.523894
rclavicle 3.47873e-015 1.45113e-014
rhumerus -15.9483 -11.6778 -81.0039
rradius 30.7318
rwrist 33.1305
rhand -21.0051 -26.7607
rfingers 7.12502
rthumb 5.36944 -56.6727
lclavicle 3.47873e-015 1.45113e-014
lhumerus -18.6148 -0.0767777 84.3816
lradius 18.4972
lwrist 9.11276
lhand -25.9512 -8.82095
lfingers 7.12502
lthumb 0.592902 21.158
rfemur -17.3926 -2.57954 20.1093
rtibia 25.3659
rfoot -10.5382 -1.23337
rtoes 9.6716
lfemur -17.8417 4.9061 -17.4705
ltibia 26.2806
lfoot -9.67955 0.738048
ltoes -4.46683
512
root 0.410123 17.5808 9.69325 3.11076 2.14793 -1.39399
lowerback -0.313367 -0.170262 -0.670887
upperback 3.90537 -0.265982 1.59479
thorax 4.20834 -0.186965 2.01071
lowerneck -9.24187 -0.438604 -0.718173
upperneck 34.0742 -0.900586 1.29606
head 12.8904 -0.315739 0.511553
rclavicle -2.68359e-015 8.54774e-015
rhumerus -16.3375 -12.1146 -80.8029
rradius 30.1225
rwrist 33.3978
rhand -20.8444 -26.8245
rfingers 7.12502
rthumb 5.52455 -56.7324
lclavicle -2.68359e-015 8.54774e-015
lhumerus -18.5362 -0.0827652 84.5783
lradius 18.4674
lwrist 9.05462
lhand -25.9645 -8.85103
lfingers 7.12502
lthumb 0.580076 21.1279
rfemur -17.2395 -2.63473 20.2415
rtibia 25.195
rfoot -10.5751 -1.23301
rtoes 9.67716
lfemur -17.7745 4.87204 -17.3843
ltibia 26.5115
lfoot -9.79415 0.756863
ltoes -4.36492
513
root 0.425346 17.5806 9.72087 3.13262 2.15761 -1.55777
lowerback -0.317479 -0.166967 -0.536874
upperback 3.9148 -0.268199 1.67883
thorax 4.22038 -0.185146 2.02229
lowerneck -9.27963 -0.466902 -0.721293
upperneck 34.0381 -0.924718 1.24753
head 12.8831 -0.332728 0.489801
rclavicle -9.64106e-015 -5.36719e-015
rhumerus -16.7139 -12.5321 -80.5929
rradius 29.4866
rwrist 33.7461
rhand -20.6822 -26.8934
rfingers 7.12502
rthumb 5.68115 -56.7972
lclavicle -9.64106e-015 -5.36719e-015
lhumerus -18.4744 -0.0392039 84.7718
lradius 18.4136
lwrist 8.95133
lhand -25.9817 -8.88871
lfingers 7.12502
lthumb 0.563409 21.0903
rfemur -17.0966 -2.66943 20.3629
rtibia 25.0722
rfoot -10.6379 -1.20753
rtoes 9.68409
lfemur -17.6213 4.81759 -17.3042
ltibia 26.5349
lfoot -9.88807 0.897435
ltoes -4.27387
